<svg width="375" height="315" viewBox="0 0 375 315" fill="none" xmlns="http://www.w3.org/2000/svg">
<path d="M210.111 83.16C245.801 100.12 302.399 86.68 342.775 98.2C383.151 109.72 407.305 146.52 396.85 177.56C386.396 208.92 341.333 234.84 306.725 255C272.117 275.48 247.964 290.2 222.729 301.4C197.494 312.92 170.817 320.92 154.234 306.2C137.65 291.16 130.441 253.08 107.729 240.28C85.0175 227.8 46.8045 240.28 5.70749 234.84C-35.3895 229.72 -79.01 206.36 -70.358 187.48C-61.3455 168.6 -0.0605164 154.52 27.698 128.92C55.817 103.64 50.4095 66.84 64.469 38.68C78.168 10.52 111.334 -9.00004 135.488 5.07996C159.641 18.84 174.422 66.2 210.111 83.16Z" fill="#F6A0A0"/>
</svg>
