<svg width="375" height="640" viewBox="0 0 375 640" fill="none" xmlns="http://www.w3.org/2000/svg">
<g filter="url(#filter0_d_596:3612)">
<path d="M210.111 220.16C245.801 237.12 302.399 223.68 342.775 235.2C383.151 246.72 407.305 283.52 396.85 314.56C386.396 345.92 341.333 371.84 306.725 392C272.117 412.48 247.964 427.2 222.729 438.4C197.494 449.92 170.817 457.92 154.234 443.2C137.65 428.16 130.441 390.08 107.729 377.28C85.0175 364.8 46.8045 377.28 5.70749 371.84C-35.3895 366.72 -79.01 343.36 -70.358 324.48C-61.3455 305.6 -0.0605164 291.52 27.698 265.92C55.817 240.64 50.4095 203.84 64.469 175.68C78.168 147.52 111.334 128 135.488 142.08C159.641 155.84 174.422 203.2 210.111 220.16Z" fill="#F6A0A0"/>
<path d="M86.855 282C86.311 282 85.879 281.856 85.559 281.568C85.239 281.248 85.047 280.864 84.983 280.416L79.751 249.744C79.719 249.648 79.703 249.536 79.703 249.408C79.703 249.152 79.799 248.928 79.991 248.736C80.215 248.512 80.455 248.4 80.711 248.4H86.663C87.559 248.4 88.055 248.752 88.151 249.456L91.271 268.176L94.727 257.136C95.079 256.272 95.607 255.84 96.311 255.84H99.767C100.567 255.84 101.095 256.272 101.351 257.136L104.807 268.176L107.927 249.456C108.023 248.752 108.519 248.4 109.415 248.4H115.367C115.655 248.4 115.895 248.512 116.087 248.736C116.311 248.928 116.423 249.152 116.423 249.408L116.375 249.744L111.143 280.416C111.079 280.864 110.871 281.248 110.519 281.568C110.199 281.856 109.783 282 109.271 282H104.711C104.199 282 103.799 281.872 103.511 281.616C103.223 281.36 103.015 281.072 102.887 280.752L98.039 267.024L93.191 280.752C92.903 281.584 92.311 282 91.415 282H86.855ZM131.518 282.48C127.678 282.48 124.654 281.44 122.446 279.36C120.238 277.28 119.086 274.256 118.99 270.288V268.608C119.118 264.832 120.286 261.888 122.494 259.776C124.734 257.632 127.726 256.56 131.47 256.56C134.19 256.56 136.478 257.12 138.334 258.24C140.222 259.328 141.63 260.832 142.558 262.752C143.518 264.672 143.998 266.88 143.998 269.376V270.528C143.998 270.848 143.886 271.136 143.662 271.392C143.438 271.616 143.15 271.728 142.798 271.728H127.438V272.064C127.502 273.568 127.87 274.784 128.542 275.712C129.214 276.64 130.19 277.104 131.47 277.104C132.27 277.104 132.926 276.944 133.438 276.624C133.95 276.272 134.414 275.856 134.83 275.376C135.118 275.024 135.342 274.816 135.502 274.752C135.694 274.656 135.982 274.608 136.366 274.608H142.318C142.606 274.608 142.846 274.704 143.038 274.896C143.262 275.056 143.374 275.28 143.374 275.568C143.374 276.4 142.894 277.36 141.934 278.448C141.006 279.536 139.646 280.48 137.854 281.28C136.062 282.08 133.95 282.48 131.518 282.48ZM135.55 266.976V266.88C135.55 265.312 135.182 264.08 134.446 263.184C133.742 262.256 132.75 261.792 131.47 261.792C130.222 261.792 129.23 262.256 128.494 263.184C127.79 264.08 127.438 265.312 127.438 266.88V266.976H135.55ZM149.698 282C149.378 282 149.09 281.888 148.834 281.664C148.61 281.408 148.498 281.12 148.498 280.8V249.12C148.498 248.768 148.61 248.48 148.834 248.256C149.09 248.032 149.378 247.92 149.698 247.92H155.362C155.714 247.92 156.002 248.032 156.226 248.256C156.45 248.48 156.562 248.768 156.562 249.12V280.8C156.562 281.152 156.45 281.44 156.226 281.664C156.002 281.888 155.714 282 155.362 282H149.698ZM173.704 282.48C170.088 282.48 167.16 281.52 164.92 279.6C162.68 277.648 161.48 274.944 161.32 271.488L161.272 269.568L161.32 267.6C161.448 264.144 162.632 261.44 164.872 259.488C167.144 257.536 170.088 256.56 173.704 256.56C176.424 256.56 178.712 257.056 180.568 258.048C182.456 259.008 183.848 260.176 184.744 261.552C185.672 262.896 186.168 264.128 186.232 265.248C186.264 265.568 186.152 265.856 185.896 266.112C185.672 266.336 185.384 266.448 185.032 266.448H178.936C178.584 266.448 178.312 266.368 178.12 266.208C177.928 266.048 177.752 265.808 177.592 265.488C177.208 264.496 176.712 263.792 176.104 263.376C175.528 262.96 174.776 262.752 173.848 262.752C171.224 262.752 169.864 264.448 169.768 267.84L169.72 269.664L169.768 271.248C169.832 272.976 170.2 274.256 170.872 275.088C171.576 275.888 172.568 276.288 173.848 276.288C174.84 276.288 175.624 276.08 176.2 275.664C176.776 275.248 177.24 274.544 177.592 273.552C177.752 273.232 177.928 272.992 178.12 272.832C178.312 272.672 178.584 272.592 178.936 272.592H185.032C185.352 272.592 185.624 272.704 185.848 272.928C186.104 273.12 186.232 273.376 186.232 273.696C186.232 274.72 185.784 275.92 184.888 277.296C184.024 278.672 182.648 279.888 180.76 280.944C178.872 281.968 176.52 282.48 173.704 282.48ZM202.353 282.48C198.385 282.48 195.329 281.536 193.185 279.648C191.041 277.76 189.873 275.104 189.681 271.68C189.649 271.264 189.633 270.544 189.633 269.52C189.633 268.496 189.649 267.776 189.681 267.36C189.873 263.968 191.073 261.328 193.281 259.44C195.489 257.52 198.513 256.56 202.353 256.56C206.225 256.56 209.265 257.52 211.473 259.44C213.681 261.328 214.881 263.968 215.073 267.36C215.105 267.776 215.121 268.496 215.121 269.52C215.121 270.544 215.105 271.264 215.073 271.68C214.881 275.104 213.713 277.76 211.569 279.648C209.425 281.536 206.353 282.48 202.353 282.48ZM202.353 276.624C203.761 276.624 204.801 276.208 205.473 275.376C206.145 274.512 206.529 273.2 206.625 271.44C206.657 271.12 206.673 270.48 206.673 269.52C206.673 268.56 206.657 267.92 206.625 267.6C206.529 265.872 206.129 264.576 205.425 263.712C204.753 262.848 203.729 262.416 202.353 262.416C199.697 262.416 198.289 264.144 198.129 267.6L198.081 269.52L198.129 271.44C198.193 273.2 198.561 274.512 199.233 275.376C199.937 276.208 200.977 276.624 202.353 276.624ZM221.089 282C220.737 282 220.449 281.888 220.225 281.664C220.001 281.44 219.889 281.152 219.889 280.8V258.24C219.889 257.888 220.001 257.6 220.225 257.376C220.449 257.152 220.737 257.04 221.089 257.04H226.321C226.673 257.04 226.961 257.152 227.185 257.376C227.409 257.6 227.521 257.888 227.521 258.24V259.872C228.257 258.912 229.233 258.128 230.449 257.52C231.697 256.88 233.089 256.56 234.625 256.56C238.145 256.56 240.577 257.936 241.921 260.688C242.689 259.472 243.761 258.48 245.137 257.712C246.513 256.944 247.985 256.56 249.553 256.56C252.177 256.56 254.305 257.456 255.937 259.248C257.601 261.008 258.433 263.648 258.433 267.168V280.8C258.433 281.12 258.321 281.408 258.097 281.664C257.873 281.888 257.585 282 257.233 282H251.665C251.313 282 251.009 281.888 250.753 281.664C250.529 281.44 250.417 281.152 250.417 280.8V267.504C250.417 265.904 250.081 264.752 249.409 264.048C248.769 263.344 247.889 262.992 246.769 262.992C245.745 262.992 244.897 263.36 244.225 264.096C243.553 264.8 243.217 265.936 243.217 267.504V280.8C243.217 281.12 243.105 281.408 242.881 281.664C242.657 281.888 242.369 282 242.017 282H236.449C236.097 282 235.809 281.888 235.585 281.664C235.361 281.44 235.249 281.152 235.249 280.8V267.504C235.249 265.936 234.897 264.8 234.193 264.096C233.521 263.36 232.657 262.992 231.601 262.992C230.577 262.992 229.713 263.36 229.009 264.096C228.337 264.8 228.001 265.92 228.001 267.456V280.8C228.001 281.12 227.889 281.408 227.665 281.664C227.441 281.888 227.153 282 226.801 282H221.089ZM275.377 282.48C271.537 282.48 268.513 281.44 266.305 279.36C264.097 277.28 262.945 274.256 262.849 270.288V268.608C262.977 264.832 264.145 261.888 266.353 259.776C268.593 257.632 271.585 256.56 275.329 256.56C278.049 256.56 280.337 257.12 282.193 258.24C284.081 259.328 285.489 260.832 286.417 262.752C287.377 264.672 287.857 266.88 287.857 269.376V270.528C287.857 270.848 287.745 271.136 287.521 271.392C287.297 271.616 287.009 271.728 286.657 271.728H271.297V272.064C271.361 273.568 271.729 274.784 272.401 275.712C273.073 276.64 274.049 277.104 275.329 277.104C276.129 277.104 276.785 276.944 277.297 276.624C277.809 276.272 278.273 275.856 278.689 275.376C278.977 275.024 279.201 274.816 279.361 274.752C279.553 274.656 279.841 274.608 280.225 274.608H286.177C286.465 274.608 286.705 274.704 286.897 274.896C287.121 275.056 287.233 275.28 287.233 275.568C287.233 276.4 286.753 277.36 285.793 278.448C284.865 279.536 283.505 280.48 281.713 281.28C279.921 282.08 277.809 282.48 275.377 282.48ZM279.409 266.976V266.88C279.409 265.312 279.041 264.08 278.305 263.184C277.601 262.256 276.609 261.792 275.329 261.792C274.081 261.792 273.089 262.256 272.353 263.184C271.649 264.08 271.297 265.312 271.297 266.88V266.976H279.409Z" fill="white"/>
<path d="M30.2637 312.62H36.3282V314H28.5674V301.203H30.2637V312.62ZM38.0674 309.157C38.0674 308.226 38.2491 307.388 38.6124 306.644C38.9815 305.899 39.4913 305.325 40.1417 304.921C40.7979 304.517 41.545 304.314 42.3829 304.314C43.6778 304.314 44.7237 304.763 45.5206 305.659C46.3233 306.556 46.7247 307.748 46.7247 309.236V309.351C46.7247 310.276 46.546 311.108 46.1885 311.847C45.837 312.579 45.3301 313.15 44.668 313.561C44.0118 313.971 43.2559 314.176 42.4005 314.176C41.1114 314.176 40.0655 313.728 39.2628 312.831C38.4659 311.935 38.0674 310.748 38.0674 309.271V309.157ZM39.7022 309.351C39.7022 310.405 39.9454 311.252 40.4317 311.891C40.9239 312.529 41.5801 312.849 42.4005 312.849C43.2266 312.849 43.8829 312.526 44.3692 311.882C44.8555 311.231 45.0987 310.323 45.0987 309.157C45.0987 308.114 44.8497 307.271 44.3516 306.626C43.8594 305.976 43.2032 305.65 42.3829 305.65C41.5801 305.65 40.9327 305.97 40.4405 306.608C39.9483 307.247 39.7022 308.161 39.7022 309.351ZM53.8604 305.949C53.6143 305.908 53.3477 305.888 53.0606 305.888C51.9942 305.888 51.2706 306.342 50.8897 307.25V314H49.2637V304.49H50.8458L50.8721 305.589C51.4053 304.739 52.1612 304.314 53.1397 304.314C53.4561 304.314 53.6964 304.355 53.8604 304.438V305.949ZM59.6339 314.176C58.3448 314.176 57.296 313.754 56.4874 312.91C55.6788 312.061 55.2745 310.927 55.2745 309.509V309.21C55.2745 308.267 55.4532 307.426 55.8106 306.688C56.1739 305.943 56.6778 305.363 57.3223 304.947C57.9727 304.525 58.6758 304.314 59.4317 304.314C60.668 304.314 61.629 304.722 62.3145 305.536C63.0001 306.351 63.3428 307.517 63.3428 309.034V309.711H56.9005C56.9239 310.648 57.1964 311.407 57.7178 311.987C58.2452 312.562 58.9131 312.849 59.7217 312.849C60.296 312.849 60.7823 312.731 61.1807 312.497C61.5792 312.263 61.9278 311.952 62.2266 311.565L63.2198 312.339C62.4229 313.563 61.2276 314.176 59.6339 314.176ZM59.4317 305.65C58.7755 305.65 58.2247 305.891 57.7794 306.371C57.334 306.846 57.0587 307.514 56.9532 308.375H61.7169V308.252C61.67 307.426 61.4473 306.787 61.0489 306.336C60.6505 305.879 60.1114 305.65 59.4317 305.65ZM67.2618 304.49L67.3057 305.545C68.003 304.725 68.9434 304.314 70.127 304.314C71.4571 304.314 72.3624 304.824 72.8428 305.844C73.1592 305.387 73.5694 305.018 74.0733 304.736C74.5831 304.455 75.1837 304.314 75.8751 304.314C77.961 304.314 79.0215 305.419 79.0567 307.628V314H77.4307V307.725C77.4307 307.045 77.2755 306.538 76.9649 306.204C76.6544 305.864 76.1329 305.694 75.4005 305.694C74.7969 305.694 74.296 305.876 73.8975 306.239C73.4991 306.597 73.2676 307.08 73.2032 307.689V314H71.5684V307.769C71.5684 306.386 70.8917 305.694 69.5381 305.694C68.4717 305.694 67.7422 306.148 67.3497 307.057V314H65.7237V304.49H67.2618ZM89.0479 314H87.3604V301.203H89.0479V314ZM100.42 309.351C100.42 310.798 100.089 311.964 99.4268 312.849C98.7647 313.733 97.8682 314.176 96.7374 314.176C95.5831 314.176 94.6749 313.81 94.0128 313.077V317.656H92.3868V304.49H93.8721L93.9512 305.545C94.6133 304.725 95.5333 304.314 96.711 304.314C97.8536 304.314 98.7559 304.745 99.418 305.606C100.086 306.468 100.42 307.666 100.42 309.201V309.351ZM98.794 309.166C98.794 308.094 98.5655 307.247 98.1085 306.626C97.6514 306.005 97.0245 305.694 96.2276 305.694C95.2432 305.694 94.5049 306.131 94.0128 307.004V311.548C94.4991 312.415 95.2432 312.849 96.2452 312.849C97.0245 312.849 97.6426 312.541 98.0997 311.926C98.5626 311.305 98.794 310.385 98.794 309.166ZM108.531 311.478C108.531 311.038 108.364 310.698 108.03 310.458C107.702 310.212 107.125 310.001 106.299 309.825C105.479 309.649 104.825 309.438 104.339 309.192C103.858 308.946 103.501 308.653 103.267 308.313C103.038 307.974 102.924 307.569 102.924 307.101C102.924 306.321 103.252 305.662 103.908 305.123C104.57 304.584 105.414 304.314 106.44 304.314C107.518 304.314 108.391 304.593 109.059 305.149C109.732 305.706 110.069 306.418 110.069 307.285H108.435C108.435 306.84 108.244 306.456 107.863 306.134C107.488 305.812 107.014 305.65 106.44 305.65C105.848 305.65 105.385 305.779 105.051 306.037C104.717 306.295 104.55 306.632 104.55 307.048C104.55 307.44 104.705 307.736 105.016 307.936C105.326 308.135 105.886 308.325 106.694 308.507C107.509 308.688 108.168 308.905 108.672 309.157C109.176 309.409 109.548 309.714 109.788 310.071C110.034 310.423 110.157 310.854 110.157 311.363C110.157 312.213 109.817 312.896 109.138 313.411C108.458 313.921 107.576 314.176 106.492 314.176C105.731 314.176 105.057 314.041 104.471 313.771C103.885 313.502 103.425 313.127 103.091 312.646C102.763 312.16 102.599 311.636 102.599 311.073H104.225C104.254 311.618 104.471 312.052 104.875 312.374C105.285 312.69 105.824 312.849 106.492 312.849C107.107 312.849 107.6 312.726 107.969 312.479C108.344 312.228 108.531 311.894 108.531 311.478ZM118.647 313.06C118.014 313.804 117.085 314.176 115.86 314.176C114.847 314.176 114.073 313.883 113.54 313.297C113.013 312.705 112.746 311.832 112.74 310.678V304.49H114.366V310.634C114.366 312.075 114.952 312.796 116.124 312.796C117.366 312.796 118.192 312.333 118.603 311.407V304.49H120.229V314H118.682L118.647 313.06ZM124.736 304.49L124.78 305.545C125.478 304.725 126.418 304.314 127.602 304.314C128.932 304.314 129.837 304.824 130.317 305.844C130.634 305.387 131.044 305.018 131.548 304.736C132.058 304.455 132.658 304.314 133.35 304.314C135.436 304.314 136.496 305.419 136.531 307.628V314H134.905V307.725C134.905 307.045 134.75 306.538 134.44 306.204C134.129 305.864 133.607 305.694 132.875 305.694C132.272 305.694 131.771 305.876 131.372 306.239C130.974 306.597 130.742 307.08 130.678 307.689V314H129.043V307.769C129.043 306.386 128.366 305.694 127.013 305.694C125.946 305.694 125.217 306.148 124.824 307.057V314H123.198V304.49H124.736ZM146.224 314H144.598V304.49H146.224V314ZM144.466 301.968C144.466 301.704 144.545 301.481 144.703 301.3C144.867 301.118 145.107 301.027 145.424 301.027C145.74 301.027 145.981 301.118 146.145 301.3C146.309 301.481 146.391 301.704 146.391 301.968C146.391 302.231 146.309 302.451 146.145 302.627C145.981 302.803 145.74 302.891 145.424 302.891C145.107 302.891 144.867 302.803 144.703 302.627C144.545 302.451 144.466 302.231 144.466 301.968ZM154.871 311.478C154.871 311.038 154.704 310.698 154.37 310.458C154.042 310.212 153.465 310.001 152.639 309.825C151.818 309.649 151.165 309.438 150.679 309.192C150.198 308.946 149.841 308.653 149.607 308.313C149.378 307.974 149.264 307.569 149.264 307.101C149.264 306.321 149.592 305.662 150.248 305.123C150.91 304.584 151.754 304.314 152.779 304.314C153.857 304.314 154.731 304.593 155.398 305.149C156.072 305.706 156.409 306.418 156.409 307.285H154.774C154.774 306.84 154.584 306.456 154.203 306.134C153.828 305.812 153.354 305.65 152.779 305.65C152.188 305.65 151.725 305.779 151.391 306.037C151.057 306.295 150.89 306.632 150.89 307.048C150.89 307.44 151.045 307.736 151.356 307.936C151.666 308.135 152.226 308.325 153.034 308.507C153.849 308.688 154.508 308.905 155.012 309.157C155.516 309.409 155.888 309.714 156.128 310.071C156.374 310.423 156.497 310.854 156.497 311.363C156.497 312.213 156.157 312.896 155.478 313.411C154.798 313.921 153.916 314.176 152.832 314.176C152.07 314.176 151.397 314.041 150.811 313.771C150.225 313.502 149.765 313.127 149.431 312.646C149.103 312.16 148.939 311.636 148.939 311.073H150.565C150.594 311.618 150.811 312.052 151.215 312.374C151.625 312.69 152.164 312.849 152.832 312.849C153.447 312.849 153.94 312.726 154.309 312.479C154.684 312.228 154.871 311.894 154.871 311.478ZM169.617 311.478C169.617 311.038 169.45 310.698 169.116 310.458C168.788 310.212 168.211 310.001 167.385 309.825C166.565 309.649 165.911 309.438 165.425 309.192C164.944 308.946 164.587 308.653 164.353 308.313C164.124 307.974 164.01 307.569 164.01 307.101C164.01 306.321 164.338 305.662 164.994 305.123C165.656 304.584 166.5 304.314 167.525 304.314C168.604 304.314 169.477 304.593 170.145 305.149C170.818 305.706 171.155 306.418 171.155 307.285H169.521C169.521 306.84 169.33 306.456 168.949 306.134C168.574 305.812 168.1 305.65 167.525 305.65C166.934 305.65 166.471 305.779 166.137 306.037C165.803 306.295 165.636 306.632 165.636 307.048C165.636 307.44 165.791 307.736 166.102 307.936C166.412 308.135 166.972 308.325 167.78 308.507C168.595 308.688 169.254 308.905 169.758 309.157C170.262 309.409 170.634 309.714 170.874 310.071C171.12 310.423 171.243 310.854 171.243 311.363C171.243 312.213 170.903 312.896 170.224 313.411C169.544 313.921 168.662 314.176 167.578 314.176C166.816 314.176 166.143 314.041 165.557 313.771C164.971 313.502 164.511 313.127 164.177 312.646C163.849 312.16 163.685 311.636 163.685 311.073H165.311C165.34 311.618 165.557 312.052 165.961 312.374C166.371 312.69 166.91 312.849 167.578 312.849C168.193 312.849 168.686 312.726 169.055 312.479C169.43 312.228 169.617 311.894 169.617 311.478ZM175.628 314H174.002V304.49H175.628V314ZM173.87 301.968C173.87 301.704 173.949 301.481 174.107 301.3C174.272 301.118 174.512 301.027 174.828 301.027C175.145 301.027 175.385 301.118 175.549 301.3C175.713 301.481 175.795 301.704 175.795 301.968C175.795 302.231 175.713 302.451 175.549 302.627C175.385 302.803 175.145 302.891 174.828 302.891C174.512 302.891 174.272 302.803 174.107 302.627C173.949 302.451 173.87 302.231 173.87 301.968ZM180.268 304.49L180.312 305.545C181.009 304.725 181.949 304.314 183.133 304.314C184.463 304.314 185.368 304.824 185.849 305.844C186.165 305.387 186.575 305.018 187.079 304.736C187.589 304.455 188.19 304.314 188.881 304.314C190.967 304.314 192.027 305.419 192.063 307.628V314H190.437V307.725C190.437 307.045 190.281 306.538 189.971 306.204C189.66 305.864 189.139 305.694 188.406 305.694C187.803 305.694 187.302 305.876 186.903 306.239C186.505 306.597 186.273 307.08 186.209 307.689V314H184.574V307.769C184.574 306.386 183.898 305.694 182.544 305.694C181.478 305.694 180.748 306.148 180.356 307.057V314H178.73V304.49H180.268ZM203.057 309.351C203.057 310.798 202.726 311.964 202.064 312.849C201.401 313.733 200.505 314.176 199.374 314.176C198.22 314.176 197.312 313.81 196.649 313.077V317.656H195.023V304.49H196.509L196.588 305.545C197.25 304.725 198.17 304.314 199.348 304.314C200.49 304.314 201.393 304.745 202.055 305.606C202.723 306.468 203.057 307.666 203.057 309.201V309.351ZM201.431 309.166C201.431 308.094 201.202 307.247 200.745 306.626C200.288 306.005 199.661 305.694 198.864 305.694C197.88 305.694 197.142 306.131 196.649 307.004V311.548C197.136 312.415 197.88 312.849 198.882 312.849C199.661 312.849 200.279 312.541 200.736 311.926C201.199 311.305 201.431 310.385 201.431 309.166ZM207.398 314H205.772V300.5H207.398V314ZM213.619 311.618L215.834 304.49H217.574L213.751 315.468C213.159 317.05 212.219 317.841 210.93 317.841L210.622 317.814L210.016 317.7V316.382L210.455 316.417C211.006 316.417 211.434 316.306 211.738 316.083C212.049 315.86 212.304 315.453 212.503 314.861L212.863 313.895L209.471 304.49H211.246L213.619 311.618ZM224.103 309.166C224.103 307.707 224.448 306.535 225.14 305.65C225.831 304.76 226.736 304.314 227.856 304.314C228.969 304.314 229.851 304.695 230.501 305.457V300.5H232.127V314H230.633L230.554 312.98C229.903 313.777 228.998 314.176 227.838 314.176C226.736 314.176 225.837 313.725 225.14 312.822C224.448 311.92 224.103 310.742 224.103 309.289V309.166ZM225.729 309.351C225.729 310.429 225.951 311.272 226.397 311.882C226.842 312.491 227.457 312.796 228.242 312.796C229.273 312.796 230.026 312.333 230.501 311.407V307.039C230.015 306.143 229.268 305.694 228.26 305.694C227.463 305.694 226.842 306.002 226.397 306.617C225.951 307.232 225.729 308.144 225.729 309.351ZM241.029 313.06C240.397 313.804 239.468 314.176 238.243 314.176C237.23 314.176 236.456 313.883 235.923 313.297C235.396 312.705 235.129 311.832 235.123 310.678V304.49H236.749V310.634C236.749 312.075 237.335 312.796 238.507 312.796C239.749 312.796 240.575 312.333 240.985 311.407V304.49H242.611V314H241.065L241.029 313.06ZM247.119 304.49L247.163 305.545C247.86 304.725 248.801 304.314 249.984 304.314C251.315 304.314 252.22 304.824 252.7 305.844C253.017 305.387 253.427 305.018 253.931 304.736C254.44 304.455 255.041 304.314 255.732 304.314C257.818 304.314 258.879 305.419 258.914 307.628V314H257.288V307.725C257.288 307.045 257.133 306.538 256.822 306.204C256.512 305.864 255.99 305.694 255.258 305.694C254.654 305.694 254.153 305.876 253.755 306.239C253.357 306.597 253.125 307.08 253.061 307.689V314H251.426V307.769C251.426 306.386 250.749 305.694 249.396 305.694C248.329 305.694 247.6 306.148 247.207 307.057V314H245.581V304.49H247.119ZM263.404 304.49L263.448 305.545C264.146 304.725 265.086 304.314 266.27 304.314C267.6 304.314 268.505 304.824 268.985 305.844C269.302 305.387 269.712 305.018 270.216 304.736C270.726 304.455 271.326 304.314 272.018 304.314C274.104 304.314 275.164 305.419 275.199 307.628V314H273.573V307.725C273.573 307.045 273.418 306.538 273.107 306.204C272.797 305.864 272.275 305.694 271.543 305.694C270.94 305.694 270.439 305.876 270.04 306.239C269.642 306.597 269.41 307.08 269.346 307.689V314H267.711V307.769C267.711 306.386 267.034 305.694 265.681 305.694C264.614 305.694 263.885 306.148 263.492 307.057V314H261.866V304.49H263.404ZM281.272 311.618L283.486 304.49H285.227L281.403 315.468C280.812 317.05 279.871 317.841 278.582 317.841L278.274 317.814L277.668 317.7V316.382L278.107 316.417C278.658 316.417 279.086 316.306 279.391 316.083C279.701 315.86 279.956 315.453 280.155 314.861L280.516 313.895L277.123 304.49H278.898L281.272 311.618ZM294.357 302.188V304.49H296.132V305.747H294.357V311.645C294.357 312.025 294.436 312.312 294.594 312.506C294.752 312.693 295.022 312.787 295.402 312.787C295.59 312.787 295.848 312.752 296.176 312.682V314C295.748 314.117 295.332 314.176 294.928 314.176C294.201 314.176 293.653 313.956 293.284 313.517C292.915 313.077 292.731 312.453 292.731 311.645V305.747H290.999V304.49H292.731V302.188H294.357ZM302.485 314.176C301.196 314.176 300.148 313.754 299.339 312.91C298.53 312.061 298.126 310.927 298.126 309.509V309.21C298.126 308.267 298.305 307.426 298.662 306.688C299.025 305.943 299.529 305.363 300.174 304.947C300.824 304.525 301.527 304.314 302.283 304.314C303.52 304.314 304.481 304.722 305.166 305.536C305.852 306.351 306.194 307.517 306.194 309.034V309.711H299.752C299.775 310.648 300.048 311.407 300.569 311.987C301.097 312.562 301.765 312.849 302.573 312.849C303.148 312.849 303.634 312.731 304.032 312.497C304.431 312.263 304.779 311.952 305.078 311.565L306.071 312.339C305.274 313.563 304.079 314.176 302.485 314.176ZM302.283 305.65C301.627 305.65 301.076 305.891 300.631 306.371C300.186 306.846 299.91 307.514 299.805 308.375H304.568V308.252C304.522 307.426 304.299 306.787 303.9 306.336C303.502 305.879 302.963 305.65 302.283 305.65ZM311.774 307.962L313.884 304.49H315.782L312.671 309.192L315.879 314H313.998L311.801 310.44L309.604 314H307.714L310.922 309.192L307.811 304.49H309.691L311.774 307.962ZM320.22 302.188V304.49H321.995V305.747H320.22V311.645C320.22 312.025 320.299 312.312 320.457 312.506C320.615 312.693 320.885 312.787 321.266 312.787C321.453 312.787 321.711 312.752 322.039 312.682V314C321.611 314.117 321.195 314.176 320.791 314.176C320.065 314.176 319.517 313.956 319.148 313.517C318.778 313.077 318.594 312.453 318.594 311.645V305.747H316.862V304.49H318.594V302.188H320.22ZM328.937 309.157C328.937 308.226 329.118 307.388 329.482 306.644C329.851 305.899 330.36 305.325 331.011 304.921C331.667 304.517 332.414 304.314 333.252 304.314C334.547 304.314 335.593 304.763 336.39 305.659C337.192 306.556 337.594 307.748 337.594 309.236V309.351C337.594 310.276 337.415 311.108 337.058 311.847C336.706 312.579 336.199 313.15 335.537 313.561C334.881 313.971 334.125 314.176 333.27 314.176C331.981 314.176 330.935 313.728 330.132 312.831C329.335 311.935 328.937 310.748 328.937 309.271V309.157ZM330.571 309.351C330.571 310.405 330.815 311.252 331.301 311.891C331.793 312.529 332.449 312.849 333.27 312.849C334.096 312.849 334.752 312.526 335.238 311.882C335.725 311.231 335.968 310.323 335.968 309.157C335.968 308.114 335.719 307.271 335.221 306.626C334.729 305.976 334.072 305.65 333.252 305.65C332.449 305.65 331.802 305.97 331.31 306.608C330.817 307.247 330.571 308.161 330.571 309.351ZM340.933 314V305.747H339.43V304.49H340.933V303.515C340.933 302.495 341.205 301.707 341.75 301.15C342.295 300.594 343.065 300.315 344.062 300.315C344.437 300.315 344.809 300.365 345.178 300.465L345.09 301.783C344.815 301.73 344.522 301.704 344.211 301.704C343.684 301.704 343.276 301.859 342.989 302.17C342.702 302.475 342.559 302.914 342.559 303.488V304.49H344.589V305.747H342.559V314H340.933ZM34.7344 326.188V328.49H36.5098V329.747H34.7344V335.645C34.7344 336.025 34.8135 336.312 34.9717 336.506C35.1299 336.693 35.3995 336.787 35.7803 336.787C35.9678 336.787 36.2256 336.752 36.5538 336.682V338C36.126 338.117 35.71 338.176 35.3057 338.176C34.5792 338.176 34.0313 337.956 33.6622 337.517C33.293 337.077 33.1085 336.453 33.1085 335.645V329.747H31.377V328.49H33.1085V326.188H34.7344ZM40.543 329.642C41.2637 328.757 42.2012 328.314 43.3555 328.314C45.3653 328.314 46.379 329.448 46.3965 331.716V338H44.7706V331.707C44.7647 331.021 44.6065 330.515 44.296 330.187C43.9913 329.858 43.5137 329.694 42.8633 329.694C42.336 329.694 41.8731 329.835 41.4747 330.116C41.0762 330.397 40.7657 330.767 40.543 331.224V338H38.9171V324.5H40.543V329.642ZM53.2774 338.176C51.9883 338.176 50.9395 337.754 50.1309 336.91C49.3223 336.061 48.918 334.927 48.918 333.509V333.21C48.918 332.267 49.0967 331.426 49.4542 330.688C49.8174 329.943 50.3214 329.363 50.9659 328.947C51.6163 328.525 52.3194 328.314 53.0753 328.314C54.3116 328.314 55.2725 328.722 55.9581 329.536C56.6436 330.351 56.9864 331.517 56.9864 333.034V333.711H50.544C50.5674 334.648 50.8399 335.407 51.3614 335.987C51.8887 336.562 52.5567 336.849 53.3653 336.849C53.9395 336.849 54.4258 336.731 54.8243 336.497C55.2227 336.263 55.5714 335.952 55.8702 335.565L56.8633 336.339C56.0665 337.563 54.8712 338.176 53.2774 338.176ZM53.0753 329.65C52.419 329.65 51.8682 329.891 51.4229 330.371C50.9776 330.846 50.7022 331.514 50.5967 332.375H55.3604V332.252C55.3135 331.426 55.0909 330.787 54.6924 330.336C54.294 329.879 53.7549 329.65 53.0753 329.65ZM72.3741 333.351C72.3741 334.798 72.043 335.964 71.3809 336.849C70.7188 337.733 69.8223 338.176 68.6915 338.176C67.5372 338.176 66.629 337.81 65.9669 337.077V341.656H64.3409V328.49H65.8262L65.9053 329.545C66.5674 328.725 67.4874 328.314 68.6651 328.314C69.8077 328.314 70.71 328.745 71.3721 329.606C72.0401 330.468 72.3741 331.666 72.3741 333.201V333.351ZM70.7481 333.166C70.7481 332.094 70.5196 331.247 70.0626 330.626C69.6055 330.005 68.9786 329.694 68.1817 329.694C67.1973 329.694 66.459 330.131 65.9669 331.004V335.548C66.4532 336.415 67.1973 336.849 68.1993 336.849C68.9786 336.849 69.5967 336.541 70.0538 335.926C70.5167 335.305 70.7481 334.385 70.7481 333.166ZM79.545 329.949C79.2989 329.908 79.0323 329.888 78.7452 329.888C77.6788 329.888 76.9551 330.342 76.5743 331.25V338H74.9483V328.49H76.5303L76.5567 329.589C77.0899 328.739 77.8458 328.314 78.8243 328.314C79.1407 328.314 79.3809 328.355 79.545 328.438V329.949ZM83.3145 338H81.6885V328.49H83.3145V338ZM81.5567 325.968C81.5567 325.704 81.6358 325.481 81.794 325.3C81.9581 325.118 82.1983 325.027 82.5147 325.027C82.8311 325.027 83.0714 325.118 83.2354 325.3C83.3995 325.481 83.4815 325.704 83.4815 325.968C83.4815 326.231 83.3995 326.451 83.2354 326.627C83.0714 326.803 82.8311 326.891 82.5147 326.891C82.1983 326.891 81.9581 326.803 81.794 326.627C81.6358 326.451 81.5567 326.231 81.5567 325.968ZM87.963 328.49L88.0157 329.686C88.7422 328.771 89.6915 328.314 90.8633 328.314C92.8731 328.314 93.8868 329.448 93.9044 331.716V338H92.2784V331.707C92.2725 331.021 92.1143 330.515 91.8038 330.187C91.4991 329.858 91.0215 329.694 90.3712 329.694C89.8438 329.694 89.3809 329.835 88.9825 330.116C88.584 330.397 88.2735 330.767 88.0508 331.224V338H86.4249V328.49H87.963ZM99.0626 326.188V328.49H100.838V329.747H99.0626V335.645C99.0626 336.025 99.1417 336.312 99.2999 336.506C99.4581 336.693 99.7276 336.787 100.108 336.787C100.296 336.787 100.554 336.752 100.882 336.682V338C100.454 338.117 100.038 338.176 99.6339 338.176C98.9073 338.176 98.3594 337.956 97.9903 337.517C97.6212 337.077 97.4366 336.453 97.4366 335.645V329.747H95.7051V328.49H97.4366V326.188H99.0626ZM105.012 338H103.386V328.49H105.012V338ZM103.254 325.968C103.254 325.704 103.333 325.481 103.491 325.3C103.655 325.118 103.896 325.027 104.212 325.027C104.528 325.027 104.769 325.118 104.933 325.3C105.097 325.481 105.179 325.704 105.179 325.968C105.179 326.231 105.097 326.451 104.933 326.627C104.769 326.803 104.528 326.891 104.212 326.891C103.896 326.891 103.655 326.803 103.491 326.627C103.333 326.451 103.254 326.231 103.254 325.968ZM109.66 328.49L109.713 329.686C110.44 328.771 111.389 328.314 112.561 328.314C114.57 328.314 115.584 329.448 115.602 331.716V338H113.976V331.707C113.97 331.021 113.812 330.515 113.501 330.187C113.196 329.858 112.719 329.694 112.068 329.694C111.541 329.694 111.078 329.835 110.68 330.116C110.281 330.397 109.971 330.767 109.748 331.224V338H108.122V328.49H109.66ZM118.167 333.166C118.167 331.684 118.51 330.506 119.195 329.633C119.881 328.754 120.789 328.314 121.92 328.314C123.08 328.314 123.985 328.725 124.636 329.545L124.715 328.49H126.2V337.771C126.2 339.002 125.834 339.972 125.102 340.681C124.375 341.39 123.397 341.744 122.166 341.744C121.481 341.744 120.81 341.598 120.153 341.305C119.497 341.012 118.996 340.61 118.65 340.101L119.494 339.125C120.191 339.986 121.044 340.417 122.052 340.417C122.843 340.417 123.458 340.194 123.898 339.749C124.343 339.304 124.565 338.677 124.565 337.868V337.051C123.915 337.801 123.027 338.176 121.902 338.176C120.789 338.176 119.887 337.728 119.195 336.831C118.51 335.935 118.167 334.713 118.167 333.166ZM119.802 333.351C119.802 334.423 120.022 335.267 120.461 335.882C120.9 336.491 121.516 336.796 122.307 336.796C123.332 336.796 124.085 336.33 124.565 335.398V331.057C124.067 330.148 123.32 329.694 122.324 329.694C121.533 329.694 120.915 330.002 120.47 330.617C120.024 331.232 119.802 332.144 119.802 333.351ZM139.997 338C139.903 337.812 139.827 337.479 139.769 336.998C139.013 337.783 138.11 338.176 137.062 338.176C136.124 338.176 135.354 337.912 134.75 337.385C134.152 336.852 133.854 336.178 133.854 335.363C133.854 334.373 134.229 333.605 134.979 333.061C135.734 332.51 136.795 332.234 138.16 332.234H139.742V331.487C139.742 330.919 139.572 330.468 139.232 330.134C138.893 329.794 138.392 329.624 137.73 329.624C137.149 329.624 136.663 329.771 136.271 330.063C135.878 330.356 135.682 330.711 135.682 331.127H134.047C134.047 330.652 134.214 330.195 134.548 329.756C134.888 329.311 135.345 328.959 135.919 328.701C136.499 328.443 137.135 328.314 137.826 328.314C138.922 328.314 139.78 328.59 140.401 329.141C141.023 329.686 141.345 330.438 141.368 331.399V335.776C141.368 336.649 141.48 337.344 141.702 337.859V338H139.997ZM137.299 336.761C137.809 336.761 138.292 336.629 138.749 336.365C139.206 336.102 139.537 335.759 139.742 335.337V333.386H138.468C136.476 333.386 135.48 333.969 135.48 335.135C135.48 335.645 135.649 336.043 135.989 336.33C136.329 336.617 136.766 336.761 137.299 336.761ZM145.955 328.49L146.008 329.686C146.734 328.771 147.684 328.314 148.856 328.314C150.865 328.314 151.879 329.448 151.897 331.716V338H150.271V331.707C150.265 331.021 150.107 330.515 149.796 330.187C149.491 329.858 149.014 329.694 148.363 329.694C147.836 329.694 147.373 329.835 146.975 330.116C146.576 330.397 146.266 330.767 146.043 331.224V338H144.417V328.49H145.955ZM154.453 333.166C154.453 331.707 154.799 330.535 155.49 329.65C156.182 328.76 157.087 328.314 158.206 328.314C159.319 328.314 160.201 328.695 160.852 329.457V324.5H162.478V338H160.983L160.904 336.98C160.254 337.777 159.349 338.176 158.189 338.176C157.087 338.176 156.188 337.725 155.49 336.822C154.799 335.92 154.453 334.742 154.453 333.289V333.166ZM156.079 333.351C156.079 334.429 156.302 335.272 156.747 335.882C157.192 336.491 157.808 336.796 158.593 336.796C159.624 336.796 160.377 336.333 160.852 335.407V331.039C160.365 330.143 159.618 329.694 158.61 329.694C157.814 329.694 157.192 330.002 156.747 330.617C156.302 331.232 156.079 332.144 156.079 333.351ZM172.68 326.188V328.49H174.455V329.747H172.68V335.645C172.68 336.025 172.759 336.312 172.917 336.506C173.075 336.693 173.345 336.787 173.726 336.787C173.913 336.787 174.171 336.752 174.499 336.682V338C174.071 338.117 173.655 338.176 173.251 338.176C172.524 338.176 171.977 337.956 171.607 337.517C171.238 337.077 171.054 336.453 171.054 335.645V329.747H169.322V328.49H171.054V326.188H172.68ZM179.974 335.618L182.189 328.49H183.929L180.106 339.468C179.514 341.05 178.573 341.841 177.284 341.841L176.977 341.814L176.37 341.7V340.382L176.81 340.417C177.36 340.417 177.788 340.306 178.093 340.083C178.403 339.86 178.658 339.453 178.857 338.861L179.218 337.895L175.825 328.49H177.601L179.974 335.618ZM193.921 333.351C193.921 334.798 193.59 335.964 192.928 336.849C192.266 337.733 191.369 338.176 190.238 338.176C189.084 338.176 188.176 337.81 187.514 337.077V341.656H185.888V328.49H187.373L187.452 329.545C188.114 328.725 189.034 328.314 190.212 328.314C191.355 328.314 192.257 328.745 192.919 329.606C193.587 330.468 193.921 331.666 193.921 333.201V333.351ZM192.295 333.166C192.295 332.094 192.066 331.247 191.609 330.626C191.152 330.005 190.525 329.694 189.729 329.694C188.744 329.694 188.006 330.131 187.514 331.004V335.548C188 336.415 188.744 336.849 189.746 336.849C190.525 336.849 191.144 336.541 191.601 335.926C192.064 335.305 192.295 334.385 192.295 333.166ZM200.441 338.176C199.152 338.176 198.104 337.754 197.295 336.91C196.486 336.061 196.082 334.927 196.082 333.509V333.21C196.082 332.267 196.261 331.426 196.618 330.688C196.982 329.943 197.485 329.363 198.13 328.947C198.78 328.525 199.483 328.314 200.239 328.314C201.476 328.314 202.437 328.722 203.122 329.536C203.808 330.351 204.15 331.517 204.15 333.034V333.711H197.708C197.732 334.648 198.004 335.407 198.525 335.987C199.053 336.562 199.721 336.849 200.529 336.849C201.104 336.849 201.59 336.731 201.988 336.497C202.387 336.263 202.735 335.952 203.034 335.565L204.027 336.339C203.231 337.563 202.035 338.176 200.441 338.176ZM200.239 329.65C199.583 329.65 199.032 329.891 198.587 330.371C198.142 330.846 197.866 331.514 197.761 332.375H202.524V332.252C202.478 331.426 202.255 330.787 201.857 330.336C201.458 329.879 200.919 329.65 200.239 329.65ZM212.077 335.478C212.077 335.038 211.91 334.698 211.576 334.458C211.248 334.212 210.671 334.001 209.845 333.825C209.024 333.649 208.371 333.438 207.885 333.192C207.404 332.946 207.047 332.653 206.813 332.313C206.584 331.974 206.47 331.569 206.47 331.101C206.47 330.321 206.798 329.662 207.454 329.123C208.116 328.584 208.96 328.314 209.985 328.314C211.064 328.314 211.937 328.593 212.605 329.149C213.278 329.706 213.615 330.418 213.615 331.285H211.981C211.981 330.84 211.79 330.456 211.409 330.134C211.034 329.812 210.56 329.65 209.985 329.65C209.394 329.65 208.931 329.779 208.597 330.037C208.263 330.295 208.096 330.632 208.096 331.048C208.096 331.44 208.251 331.736 208.562 331.936C208.872 332.135 209.432 332.325 210.24 332.507C211.055 332.688 211.714 332.905 212.218 333.157C212.722 333.409 213.094 333.714 213.334 334.071C213.58 334.423 213.703 334.854 213.703 335.363C213.703 336.213 213.363 336.896 212.684 337.411C212.004 337.921 211.122 338.176 210.038 338.176C209.276 338.176 208.603 338.041 208.017 337.771C207.431 337.502 206.971 337.127 206.637 336.646C206.309 336.16 206.145 335.636 206.145 335.073H207.771C207.8 335.618 208.017 336.052 208.421 336.374C208.831 336.69 209.37 336.849 210.038 336.849C210.653 336.849 211.146 336.726 211.515 336.479C211.89 336.228 212.077 335.894 212.077 335.478ZM220.268 338.176C218.979 338.176 217.93 337.754 217.121 336.91C216.313 336.061 215.908 334.927 215.908 333.509V333.21C215.908 332.267 216.087 331.426 216.444 330.688C216.808 329.943 217.312 329.363 217.956 328.947C218.607 328.525 219.31 328.314 220.065 328.314C221.302 328.314 222.263 328.722 222.948 329.536C223.634 330.351 223.977 331.517 223.977 333.034V333.711H217.534C217.558 334.648 217.83 335.407 218.352 335.987C218.879 336.562 219.547 336.849 220.356 336.849C220.93 336.849 221.416 336.731 221.815 336.497C222.213 336.263 222.562 335.952 222.86 335.565L223.854 336.339C223.057 337.563 221.861 338.176 220.268 338.176ZM220.065 329.65C219.409 329.65 218.858 329.891 218.413 330.371C217.968 330.846 217.692 331.514 217.587 332.375H222.351V332.252C222.304 331.426 222.081 330.787 221.683 330.336C221.284 329.879 220.745 329.65 220.065 329.65ZM228.572 326.188V328.49H230.348V329.747H228.572V335.645C228.572 336.025 228.651 336.312 228.81 336.506C228.968 336.693 229.237 336.787 229.618 336.787C229.806 336.787 230.064 336.752 230.392 336.682V338C229.964 338.117 229.548 338.176 229.144 338.176C228.417 338.176 227.869 337.956 227.5 337.517C227.131 337.077 226.946 336.453 226.946 335.645V329.747H225.215V328.49H226.946V326.188H228.572ZM234.961 326.188V328.49H236.736V329.747H234.961V335.645C234.961 336.025 235.04 336.312 235.198 336.506C235.357 336.693 235.626 336.787 236.007 336.787C236.194 336.787 236.452 336.752 236.78 336.682V338C236.353 338.117 235.937 338.176 235.532 338.176C234.806 338.176 234.258 337.956 233.889 337.517C233.52 337.077 233.335 336.453 233.335 335.645V329.747H231.604V328.49H233.335V326.188H234.961ZM240.91 338H239.284V328.49H240.91V338ZM239.152 325.968C239.152 325.704 239.232 325.481 239.39 325.3C239.554 325.118 239.794 325.027 240.11 325.027C240.427 325.027 240.667 325.118 240.831 325.3C240.995 325.481 241.077 325.704 241.077 325.968C241.077 326.231 240.995 326.451 240.831 326.627C240.667 326.803 240.427 326.891 240.11 326.891C239.794 326.891 239.554 326.803 239.39 326.627C239.232 326.451 239.152 326.231 239.152 325.968ZM245.559 328.49L245.611 329.686C246.338 328.771 247.287 328.314 248.459 328.314C250.469 328.314 251.482 329.448 251.5 331.716V338H249.874V331.707C249.868 331.021 249.71 330.515 249.399 330.187C249.095 329.858 248.617 329.694 247.967 329.694C247.44 329.694 246.977 329.835 246.578 330.116C246.18 330.397 245.869 330.767 245.647 331.224V338H244.021V328.49H245.559ZM254.065 333.166C254.065 331.684 254.408 330.506 255.094 329.633C255.779 328.754 256.688 328.314 257.818 328.314C258.979 328.314 259.884 328.725 260.534 329.545L260.613 328.49H262.099V337.771C262.099 339.002 261.732 339.972 261 340.681C260.273 341.39 259.295 341.744 258.065 341.744C257.379 341.744 256.708 341.598 256.052 341.305C255.396 341.012 254.895 340.61 254.549 340.101L255.393 339.125C256.09 339.986 256.942 340.417 257.95 340.417C258.741 340.417 259.357 340.194 259.796 339.749C260.241 339.304 260.464 338.677 260.464 337.868V337.051C259.814 337.801 258.926 338.176 257.801 338.176C256.688 338.176 255.785 337.728 255.094 336.831C254.408 335.935 254.065 334.713 254.065 333.166ZM255.7 333.351C255.7 334.423 255.92 335.267 256.359 335.882C256.799 336.491 257.414 336.796 258.205 336.796C259.231 336.796 259.983 336.33 260.464 335.398V331.057C259.966 330.148 259.219 329.694 258.223 329.694C257.432 329.694 256.814 330.002 256.368 330.617C255.923 331.232 255.7 332.144 255.7 333.351ZM271.791 338H270.165V328.49H271.791V338ZM270.033 325.968C270.033 325.704 270.112 325.481 270.271 325.3C270.435 325.118 270.675 325.027 270.991 325.027C271.308 325.027 271.548 325.118 271.712 325.3C271.876 325.481 271.958 325.704 271.958 325.968C271.958 326.231 271.876 326.451 271.712 326.627C271.548 326.803 271.308 326.891 270.991 326.891C270.675 326.891 270.435 326.803 270.271 326.627C270.112 326.451 270.033 326.231 270.033 325.968ZM276.44 328.49L276.492 329.686C277.219 328.771 278.168 328.314 279.34 328.314C281.35 328.314 282.363 329.448 282.381 331.716V338H280.755V331.707C280.749 331.021 280.591 330.515 280.28 330.187C279.976 329.858 279.498 329.694 278.848 329.694C278.32 329.694 277.857 329.835 277.459 330.116C277.061 330.397 276.75 330.767 276.527 331.224V338H274.901V328.49H276.44ZM284.938 333.166C284.938 331.707 285.283 330.535 285.975 329.65C286.666 328.76 287.571 328.314 288.69 328.314C289.804 328.314 290.686 328.695 291.336 329.457V324.5H292.962V338H291.468L291.389 336.98C290.738 337.777 289.833 338.176 288.673 338.176C287.571 338.176 286.672 337.725 285.975 336.822C285.283 335.92 284.938 334.742 284.938 333.289V333.166ZM286.564 333.351C286.564 334.429 286.786 335.272 287.232 335.882C287.677 336.491 288.292 336.796 289.077 336.796C290.108 336.796 290.861 336.333 291.336 335.407V331.039C290.85 330.143 290.103 329.694 289.095 329.694C288.298 329.694 287.677 330.002 287.232 330.617C286.786 331.232 286.564 332.144 286.564 333.351ZM301.864 337.06C301.232 337.804 300.303 338.176 299.078 338.176C298.065 338.176 297.291 337.883 296.758 337.297C296.231 336.705 295.964 335.832 295.958 334.678V328.49H297.584V334.634C297.584 336.075 298.17 336.796 299.342 336.796C300.584 336.796 301.41 336.333 301.82 335.407V328.49H303.446V338H301.899L301.864 337.06ZM311.962 335.478C311.962 335.038 311.795 334.698 311.461 334.458C311.133 334.212 310.556 334.001 309.73 333.825C308.909 333.649 308.256 333.438 307.77 333.192C307.289 332.946 306.932 332.653 306.697 332.313C306.469 331.974 306.355 331.569 306.355 331.101C306.355 330.321 306.683 329.662 307.339 329.123C308.001 328.584 308.845 328.314 309.87 328.314C310.948 328.314 311.821 328.593 312.489 329.149C313.163 329.706 313.5 330.418 313.5 331.285H311.865C311.865 330.84 311.675 330.456 311.294 330.134C310.919 329.812 310.444 329.65 309.87 329.65C309.278 329.65 308.815 329.779 308.482 330.037C308.148 330.295 307.981 330.632 307.981 331.048C307.981 331.44 308.136 331.736 308.446 331.936C308.757 332.135 309.316 332.325 310.125 332.507C310.94 332.688 311.599 332.905 312.103 333.157C312.607 333.409 312.979 333.714 313.219 334.071C313.465 334.423 313.588 334.854 313.588 335.363C313.588 336.213 313.248 336.896 312.568 337.411C311.889 337.921 311.007 338.176 309.923 338.176C309.161 338.176 308.487 338.041 307.901 337.771C307.315 337.502 306.856 337.127 306.522 336.646C306.193 336.16 306.029 335.636 306.029 335.073H307.655C307.685 335.618 307.901 336.052 308.306 336.374C308.716 336.69 309.255 336.849 309.923 336.849C310.538 336.849 311.03 336.726 311.399 336.479C311.774 336.228 311.962 335.894 311.962 335.478ZM318.412 326.188V328.49H320.188V329.747H318.412V335.645C318.412 336.025 318.491 336.312 318.649 336.506C318.808 336.693 319.077 336.787 319.458 336.787C319.646 336.787 319.903 336.752 320.232 336.682V338C319.804 338.117 319.388 338.176 318.983 338.176C318.257 338.176 317.709 337.956 317.34 337.517C316.971 337.077 316.786 336.453 316.786 335.645V329.747H315.055V328.49H316.786V326.188H318.412ZM327.191 329.949C326.945 329.908 326.679 329.888 326.392 329.888C325.325 329.888 324.602 330.342 324.221 331.25V338H322.595V328.49H324.177L324.203 329.589C324.736 328.739 325.492 328.314 326.471 328.314C326.787 328.314 327.027 328.355 327.191 328.438V329.949ZM332.464 335.618L334.679 328.49H336.419L332.596 339.468C332.004 341.05 331.064 341.841 329.774 341.841L329.467 341.814L328.86 341.7V340.382L329.3 340.417C329.851 340.417 330.278 340.306 330.583 340.083C330.894 339.86 331.148 339.453 331.348 338.861L331.708 337.895L328.315 328.49H330.091L332.464 335.618ZM337.464 337.147C337.464 336.866 337.546 336.632 337.71 336.444C337.88 336.257 338.132 336.163 338.466 336.163C338.8 336.163 339.052 336.257 339.222 336.444C339.398 336.632 339.485 336.866 339.485 337.147C339.485 337.417 339.398 337.643 339.222 337.824C339.052 338.006 338.8 338.097 338.466 338.097C338.132 338.097 337.88 338.006 337.71 337.824C337.546 337.643 337.464 337.417 337.464 337.147Z" fill="black" fill-opacity="0.87"/>
</g>
<defs>
<filter id="filter0_d_596:3612" x="-220" y="0" width="729" height="648" filterUnits="userSpaceOnUse" color-interpolation-filters="sRGB">
<feFlood flood-opacity="0" result="BackgroundImageFix"/>
<feColorMatrix in="SourceAlpha" type="matrix" values="0 0 0 0 0 0 0 0 0 0 0 0 0 0 0 0 0 0 127 0" result="hardAlpha"/>
<feOffset dy="4"/>
<feGaussianBlur stdDeviation="2"/>
<feComposite in2="hardAlpha" operator="out"/>
<feColorMatrix type="matrix" values="0 0 0 0 0 0 0 0 0 0 0 0 0 0 0 0 0 0 0.25 0"/>
<feBlend mode="normal" in2="BackgroundImageFix" result="effect1_dropShadow_596:3612"/>
<feBlend mode="normal" in="SourceGraphic" in2="effect1_dropShadow_596:3612" result="shape"/>
</filter>
</defs>
</svg>
