<svg width="308" height="220" viewBox="0 0 308 220" fill="none" xmlns="http://www.w3.org/2000/svg">
<path d="M260.053 152.78C259.735 152.42 259.497 151.993 259.357 151.529C259.217 151.064 259.178 150.575 259.244 150.094C259.309 149.613 259.477 149.152 259.736 148.745C259.994 148.337 260.337 147.992 260.74 147.735L258.162 136.228L263.786 138.378L265.372 148.975C265.75 149.695 265.857 150.532 265.672 151.328C265.487 152.123 265.022 152.822 264.367 153.291C263.711 153.76 262.91 153.967 262.115 153.872C261.32 153.778 260.587 153.39 260.053 152.78Z" fill="#FFB8B8"/>
<path d="M259.664 143.648L254.72 133.883L255.389 109.296L255.707 109.98C256.077 110.777 264.751 129.536 264.133 135.817L265.124 141.556L259.664 143.648Z" fill="#3F3D56"/>
<path d="M256.441 215.809H260.405L262.291 200.189L256.44 200.189L256.441 215.809Z" fill="#FFB8B8"/>
<path d="M255.43 214.487L263.237 214.487H263.237C264.557 214.487 265.822 215.022 266.755 215.975C267.688 216.929 268.212 218.221 268.212 219.569V219.734L255.43 219.735L255.43 214.487Z" fill="#2F2E41"/>
<path d="M217.272 212.731L221.091 213.816L227.005 199.283L221.368 197.682L217.272 212.731Z" fill="#FFB8B8"/>
<path d="M216.644 211.181L224.166 213.317L224.166 213.318C225.438 213.679 226.516 214.541 227.165 215.715C227.814 216.888 227.98 218.277 227.627 219.576L227.583 219.735L215.268 216.237L216.644 211.181Z" fill="#2F2E41"/>
<path d="M252.488 209.72L244.488 151.2L227.208 209.389L213.621 204.649L233.094 126.732L233.223 126.723L253.623 125.274L268.361 204.99L252.488 209.72Z" fill="#2F2E41"/>
<path d="M250.373 99.1568C250.373 99.1568 242.935 95.1929 232.912 96.8445C232.912 96.8445 227.576 109.994 232.912 115.228L234.367 128.391C234.367 128.391 247.947 136.649 252.474 127.069L251.828 116.169C251.828 116.169 255.061 110.941 252.474 107.113C250.924 104.775 250.184 101.974 250.373 99.1568Z" fill="#D39B87"/>
<path d="M251.315 159.026L252.62 131.355L248.926 98.4377L249.095 98.4115C253.941 97.6651 255.496 106.194 255.559 106.557L263.994 155.277L251.315 159.026Z" fill="#3F3D56"/>
<path d="M234.869 159.315L219.958 157.622L219.961 157.456C220.014 155.2 221.298 102.176 224.894 98.4208C228.512 94.6431 235.338 96.2777 235.627 96.3495L235.771 96.385L234.544 118.822L234.869 159.315Z" fill="#3F3D56"/>
<path d="M237.616 127.623C237.164 127.775 236.686 127.823 236.214 127.765C235.742 127.707 235.288 127.544 234.884 127.287C234.481 127.031 234.137 126.687 233.878 126.28C233.618 125.873 233.449 125.413 233.383 124.932L222.043 122.663L226.251 118.287L236.374 121.113C237.172 121.052 237.964 121.292 238.6 121.789C239.237 122.285 239.672 123.002 239.826 123.804C239.979 124.607 239.838 125.439 239.431 126.143C239.024 126.846 238.378 127.373 237.616 127.623Z" fill="#FFB8B8"/>
<path d="M231.565 124.967L227.87 124.155C222.415 125.831 212.895 119.931 209.047 117.311C208.322 116.818 208.088 115.841 208.348 114.408C208.733 112.403 209.815 110.608 211.394 109.354L224.947 98.3763L228.367 97.792L229.383 103.674L220.749 113.148L233.459 120.216L231.565 124.967Z" fill="#3F3D56"/>
<path d="M230.103 91.8653V84.2382C230.103 81.0114 231.358 77.9166 233.592 75.6349C235.825 73.3532 238.855 72.0713 242.013 72.0713C245.172 72.0713 248.201 73.3532 250.435 75.6349C252.669 77.9166 253.923 81.0114 253.923 84.2382V91.8653C253.923 92.2986 253.754 92.714 253.454 93.0204C253.154 93.3268 252.748 93.4991 252.324 93.4996H231.703C231.279 93.4991 230.872 93.3268 230.573 93.0204C230.273 92.714 230.104 92.2986 230.103 91.8653Z" fill="#2F2E41"/>
<path d="M241.535 93.4245C246.357 93.4245 250.267 89.4307 250.267 84.5041C250.267 79.5775 246.357 75.5837 241.535 75.5837C236.712 75.5837 232.803 79.5775 232.803 84.5041C232.803 89.4307 236.712 93.4245 241.535 93.4245Z" fill="#FFB8B8"/>
<path d="M232.563 84.4698C232.48 84.3714 232.418 84.2559 232.382 84.131C232.346 84.0061 232.337 83.8747 232.355 83.7459L233.389 76.3877C233.41 76.238 233.467 76.0958 233.555 75.9742C233.642 75.8525 233.758 75.7551 233.892 75.6908C239.172 73.1665 244.526 73.1633 249.806 75.6812C249.946 75.749 250.066 75.8528 250.155 75.9824C250.244 76.1121 250.299 76.2631 250.314 76.4207L251.004 83.7885C251.016 83.9144 251.002 84.0415 250.963 84.1616C250.924 84.2817 250.86 84.3921 250.777 84.4858C250.694 84.5794 250.592 84.6542 250.479 84.7054C250.366 84.7566 250.243 84.783 250.119 84.783H248.368C248.199 84.7826 248.034 84.7331 247.891 84.6404C247.748 84.5476 247.635 84.4154 247.563 84.2591L246.807 82.6049C246.758 82.4978 246.676 82.4098 246.574 82.3543C246.472 82.2987 246.355 82.2787 246.241 82.297C246.126 82.3154 246.021 82.3713 245.941 82.4562C245.86 82.5411 245.809 82.6504 245.794 82.7677L245.645 83.9874C245.618 84.2069 245.514 84.4088 245.351 84.5553C245.189 84.7017 244.98 84.7827 244.763 84.783H233.235C233.108 84.783 232.982 84.7551 232.866 84.701C232.75 84.647 232.647 84.5681 232.563 84.4698Z" fill="#2F2E41"/>
<path d="M195.893 14.6609H0V139.277H195.893V14.6609Z" fill="#E6E6E6"/>
<path d="M49.0139 38.6677H13.1361V62.4914H49.0139V38.6677Z" fill="white"/>
<path d="M93.5949 38.6677H57.717V62.4914H93.5949V38.6677Z" fill="white"/>
<path d="M138.176 38.6677H102.298V62.4914H138.176V38.6677Z" fill="white"/>
<path d="M182.757 38.6677H146.879V62.4914H182.757V38.6677Z" fill="white"/>
<path d="M49.0139 72.3872H13.1361V96.2109H49.0139V72.3872Z" fill="white"/>
<path d="M93.5949 72.3872H57.717V96.2109H93.5949V72.3872Z" fill="white"/>
<path d="M138.176 72.3872H102.298V96.2109H138.176V72.3872Z" fill="white"/>
<path d="M182.757 72.3872H146.879V96.2109H182.757V72.3872Z" fill="white"/>
<path d="M49.0139 106.107H13.1361V129.931H49.0139V106.107Z" fill="white"/>
<path d="M93.5949 106.107H57.717V129.931H93.5949V106.107Z" fill="white"/>
<path d="M138.176 106.107H102.298V129.931H138.176V106.107Z" fill="white"/>
<path d="M182.757 106.107H146.879V129.931H182.757V106.107Z" fill="white"/>
<path d="M51.3053 29.3215C54.2775 29.3215 56.6869 26.86 56.6869 23.8237C56.6869 20.7874 54.2775 18.3259 51.3053 18.3259C48.333 18.3259 45.9236 20.7874 45.9236 23.8237C45.9236 26.86 48.333 29.3215 51.3053 29.3215Z" fill="white"/>
<path d="M140.282 29.3215C143.255 29.3215 145.664 26.86 145.664 23.8237C145.664 20.7874 143.255 18.3259 140.282 18.3259C137.31 18.3259 134.901 20.7874 134.901 23.8237C134.901 26.86 137.31 29.3215 140.282 29.3215Z" fill="white"/>
<path d="M53.4579 0H49.1526V25.2897H53.4579V0Z" fill="#E6E6E6"/>
<path d="M142.435 0H138.13V25.2897H142.435V0Z" fill="#E6E6E6"/>
<path d="M172.931 50.5795C172.929 52.5699 172.224 54.4927 170.946 55.9947C169.668 57.4967 167.901 58.477 165.972 58.7554C164.043 59.0338 162.08 58.5917 160.445 57.5102C158.809 56.4287 157.61 54.7806 157.069 52.8686C156.527 50.9567 156.679 48.9093 157.497 47.1027C158.315 45.2961 159.743 43.8517 161.52 43.0348C163.297 42.2179 165.302 42.0835 167.168 42.6561C169.034 43.2288 170.635 44.4701 171.677 46.152C172.498 47.4765 172.933 49.0121 172.931 50.5795Z" fill="#D39B87"/>
<path d="M171.677 46.1522L163.691 54.3094C163.189 53.5155 160.392 49.8261 160.392 49.8261C160.751 49.4561 161.133 49.1112 161.537 48.7939L163.856 51.9525L170.742 44.918C171.091 45.2983 171.404 45.7115 171.677 46.1522Z" fill="white"/>
<path d="M83.7693 84.2992C83.7675 86.2896 83.0626 88.2124 81.7842 89.7144C80.5057 91.2164 78.7397 92.1967 76.8105 92.4751C74.8813 92.7535 72.9186 92.3114 71.2829 91.2299C69.6473 90.1484 68.4486 88.5003 67.9071 86.5883C67.3656 84.6764 67.5177 82.629 68.3355 80.8224C69.1532 79.0159 70.5817 77.5714 72.3584 76.7545C74.1351 75.9376 76.1407 75.8032 78.0066 76.3759C79.8726 76.9485 81.4736 78.1899 82.5154 79.8718C83.3359 81.1963 83.7708 82.7318 83.7693 84.2992Z" fill="#D39B87"/>
<path d="M82.5154 79.8716L74.529 88.0289C74.027 87.235 71.2306 83.5456 71.2306 83.5456C71.589 83.1756 71.9714 82.8307 72.3753 82.5134L74.6942 85.672L81.5802 78.6375C81.9294 79.0177 82.2425 79.431 82.5154 79.8716Z" fill="white"/>
<path d="M39.1883 84.2993C39.1865 86.2896 38.4816 88.2125 37.2032 89.7145C35.9248 91.2165 34.1587 92.1968 32.2295 92.4752C30.3003 92.7536 28.3376 92.3115 26.7019 91.23C25.0662 90.1485 23.8675 88.5004 23.3261 86.5884C22.7846 84.6764 22.9367 82.629 23.7544 80.8225C24.5722 79.0159 26.0007 77.5714 27.7774 76.7545C29.5541 75.9376 31.5597 75.8032 33.4256 76.3759C35.2916 76.9485 36.8926 78.1899 37.9345 79.8718C38.7549 81.1963 39.1898 82.7318 39.1883 84.2993Z" fill="#D39B87"/>
<path d="M37.9345 79.8716L29.9481 88.0289C29.4461 87.235 26.6497 83.5456 26.6497 83.5456C27.008 83.1756 27.3905 82.8307 27.7944 82.5134L30.1133 85.672L36.9993 78.6375C37.3485 79.0178 37.6616 79.431 37.9345 79.8716Z" fill="white"/>
<path d="M307.645 220H172.19C172.096 220 172.006 219.962 171.939 219.894C171.872 219.826 171.835 219.733 171.835 219.637C171.835 219.541 171.872 219.448 171.939 219.38C172.006 219.312 172.096 219.274 172.19 219.274H307.645C307.739 219.274 307.829 219.312 307.896 219.38C307.963 219.448 308 219.541 308 219.637C308 219.733 307.963 219.826 307.896 219.894C307.829 219.962 307.739 220 307.645 220Z" fill="#3F3D56"/>
</svg>
